<svg xmlns="http://www.w3.org/2000/svg" width="74.7" height="72.3" fill="#81b3d2" viewBox="0 0 74 72"><path d="M29.5 65.3h16V41.4h-16v24zm13-2.9h-10v-18h10v18z"/><path d="M72.6 39.4l2.1-2-10-10V.4H51v13.2L37.3 0 0 37.4l2 2 8-7.8v37.8H6v3h63.8v-3h-5V31.6l7.8 7.8zM54 3.4h8v21.1l-8-8v-13zm8 66H13V28.7L37.2 4.2 62 28.7v40.7z"/><path d="M29.8 27.2a7.8 7.8 0 1015.5 0 7.8 7.8 0 00-15.5 0zm7.7-5a5 5 0 110 10 5 5 0 010-10zM16.9 41.4h3v3.9h-3zm5.9 0h3v3.9h-3zm-5.9 6h3v3.9h-3zm5.9 0h3v3.9h-3zm26-6h3v3.9h-3zm6 0h3v3.9h-3zm-6 6h3v3.9h-3zm6 0h3v3.9h-3z"/></svg>
